<svg width="13" height="16" viewBox="0 0 13 16" fill="none" xmlns="http://www.w3.org/2000/svg">
<mask id="mask0_34_334" style="mask-type:luminance" maskUnits="userSpaceOnUse" x="0" y="10" width="13" height="6">
<path fill-rule="evenodd" clip-rule="evenodd" d="M0 10.0622H12.7548V16H0V10.0622Z" fill="white"/>
</mask>
<g mask="url(#mask0_34_334)">
<path fill-rule="evenodd" clip-rule="evenodd" d="M6.37837 11.27C2.94727 11.27 1.20796 11.8595 1.20796 13.023C1.20796 14.1971 2.94727 14.7921 6.37837 14.7921C9.80867 14.7921 11.5472 14.2027 11.5472 13.0391C11.5472 11.8651 9.80867 11.27 6.37837 11.27ZM6.37826 16C4.80081 16 0 16 0 13.023C0 10.369 3.64046 10.0622 6.37826 10.0622C7.95571 10.0622 12.7549 10.0622 12.7549 13.0391C12.7549 15.6932 9.11525 16 6.37826 16Z" fill="#01303F"/>
</g>
<mask id="mask1_34_334" style="mask-type:luminance" maskUnits="userSpaceOnUse" x="2" y="0" width="9" height="9">
<path fill-rule="evenodd" clip-rule="evenodd" d="M2.10156 0H10.6532V8.55046H2.10156V0Z" fill="white"/>
</mask>
<g mask="url(#mask1_34_334)">
<path fill-rule="evenodd" clip-rule="evenodd" d="M6.37846 1.14955C4.65445 1.14955 3.25173 2.55146 3.25173 4.27547C3.2461 5.99384 4.63835 7.39494 6.35511 7.40139L6.37846 7.97632V7.40139C8.10166 7.40139 9.50357 5.99867 9.50357 4.27547C9.50357 2.55146 8.10166 1.14955 6.37846 1.14955ZM6.37819 8.55038H6.35242C3.99952 8.54314 2.09354 6.62426 2.10159 4.27298C2.10159 1.91767 4.01966 -0.000396729 6.37819 -0.000396729C8.73591 -0.000396729 10.6532 1.91767 10.6532 4.2754C10.6532 6.63312 8.73591 8.55038 6.37819 8.55038Z" fill="#01303F"/>
</g>
</svg>
